<svg xmlns="http://www.w3.org/2000/svg" viewBox="0 0 43.96 36.31"><defs><style>.cls-1{fill:#2d3c6b;}.cls-2{fill:#ffc839;}.cls-3{fill:#ff9100;}.cls-4{fill:#4d4d4d;fill-rule:evenodd;}.cls-5{fill:#e7e7e7;}.cls-6{fill:#ce3232;}.cls-7{fill:#bd3232;}</style></defs><g id="Layer_2" data-name="Layer 2"><g id="Layer_1-2" data-name="Layer 1"><rect class="cls-1" x="8.04" y="32.52" width="27.87" height="3.8" rx="1.9"/><path class="cls-2" d="M32.38,32.52H11.57l4.65-8.76H27.73Z"/><path class="cls-3" d="M16,29.87l1.84-3.47h8.34L28,29.87Z"/><path class="cls-2" d="M11.79,0V13.24a8.59,8.59,0,0,0,4.43,7.51H27.73a8.6,8.6,0,0,0,4.44-7.51V0Z"/><path class="cls-3" d="M15.82,20.54H28.13v3.22H15.82Z"/><path class="cls-3" d="M39,1H32.87V3.81H39a2.13,2.13,0,0,1,2.12,2.12v4.5a2.12,2.12,0,0,1-1.63,2.06l-6.77,1.62a9.16,9.16,0,0,1-1.21,3.19l8.64-2.06A4.94,4.94,0,0,0,44,10.43V5.93A5,5,0,0,0,39,1Z"/><path class="cls-3" d="M4.94,1h6.15V3.81H4.94A2.13,2.13,0,0,0,2.82,5.93v4.5a2.13,2.13,0,0,0,1.63,2.06l6.78,1.62a9.16,9.16,0,0,0,1.21,3.19L3.79,15.24A4.93,4.93,0,0,1,0,10.43V5.93A4.94,4.94,0,0,1,4.94,1Z"/><g id="Page-1"><g id="Dribbble-Light-Preview"><g id="icons"><path id="code-_1115_" data-name="code-[#1115]" class="cls-4" d="M19.24,6.85a.69.69,0,0,0,0-1h0a.68.68,0,0,0-.95,0L15.87,8.31a.69.69,0,0,0,0,1l2.41,2.43a.66.66,0,0,0,.95,0h0a.69.69,0,0,0,0-1L17.79,9.27a.69.69,0,0,1,0-1Zm9.25,1.46L26.08,5.88a.68.68,0,0,0-.95,0h0a.69.69,0,0,0,0,1l1.45,1.46a.69.69,0,0,1,0,1l-1.45,1.46a.69.69,0,0,0,0,1h0a.66.66,0,0,0,.95,0l2.41-2.43a.69.69,0,0,0,0-1Zm-4-2.84L21,12.89c-.11.23-.31.52-.56.52h0a.8.8,0,0,1-.6-1.12l3.45-7.35c.11-.23.53-.41.53-.41v0a.65.65,0,0,1,.67,1Z"/></g></g></g><path class="cls-5" d="M22,1.4l-7.12,2V7a11.43,11.43,0,0,0,6.93,10.53l.19.08.19-.08A11.44,11.44,0,0,0,29.16,7V3.43Z"/><path class="cls-6" d="M22,3.37l-5.22,1.5V7a9.57,9.57,0,0,0,5,8.41l.22.12.23-.12a9.57,9.57,0,0,0,5-8.41V4.87Z"/><path class="cls-7" d="M27.26,4.87V7a9.57,9.57,0,0,1-5,8.41l-.23.12V3.37Z"/></g></g></svg>