<svg xmlns="http://www.w3.org/2000/svg" xmlns:xlink="http://www.w3.org/1999/xlink" viewBox="0 0 45.72 40.06"><defs><style>.cls-1{fill:url(#linear-gradient);}.cls-2{fill:url(#linear-gradient-2);}.cls-3{fill:url(#linear-gradient-3);}</style><linearGradient id="linear-gradient" x1="9.66" y1="2.63" x2="29.25" y2="2.63" gradientTransform="matrix(0.84, -0.55, 0.55, 0.84, -6.73, 37.45)" gradientUnits="userSpaceOnUse"><stop offset="0" stop-color="#2ad2ff"/><stop offset="1" stop-color="#00e73a"/></linearGradient><linearGradient id="linear-gradient-2" x1="92.82" y1="-32.23" x2="112.41" y2="-32.23" gradientTransform="matrix(-0.79, -0.62, 0.62, -0.79, 135.47, 67.72)" xlink:href="#linear-gradient"/><linearGradient id="linear-gradient-3" x1="66.98" y1="104.39" x2="87.72" y2="104.39" gradientTransform="translate(105.16 -90.89) rotate(75.84)" xlink:href="#linear-gradient"/></defs><g id="Layer_2" data-name="Layer 2"><g id="Layer_1-2" data-name="Layer 1"><path class="cls-1" d="M5.83,19.13a.43.43,0,0,1,.23-.65A3.65,3.65,0,0,1,7,18.3l6.63-.38a.83.83,0,0,1,.86,1l-.82,3.95a.83.83,0,0,1-.76.66l-4.31.25A.35.35,0,0,0,8.3,24L6.15,28.23c-.38.8-1.21.61-1,.08l2.38-4.74a1.2,1.2,0,0,1,1-.66l4.17-.25a.18.18,0,0,0,.17-.14c.17-1,.49-2.79.62-3.51a.18.18,0,0,0-.19-.21L7,19.16a3.43,3.43,0,0,0-.71.14.43.43,0,0,1-.5-.17ZM8.72,36.89l6.55-.38h.05a.42.42,0,0,0,.32-.66l-.15-.24a1.26,1.26,0,0,1-.27,0L8.67,36a1.63,1.63,0,0,1-1.45-.73L3.61,29.81a1.62,1.62,0,0,1-.1-1.62l3-5.87a1.66,1.66,0,0,1,1.36-.89l1.72-.11A1.17,1.17,0,0,0,11,22a1.17,1.17,0,1,0-.8-2.2,1.21,1.21,0,0,0-.68.67l-1.77.11a2.5,2.5,0,0,0-2.08,1.37L2.74,27.8a2.49,2.49,0,0,0,.15,2.49l3.6,5.48A2.51,2.51,0,0,0,8.72,36.89ZM21.32,29a1.12,1.12,0,0,0-.47.77,1,1,0,0,0,.3,1.06l-2.8,5.57A2.82,2.82,0,0,1,16,37.91l-7.84.46c-.11,0-.23,0-.34,0a.42.42,0,0,0-.43.23h0a.43.43,0,0,0,.34.62,3.84,3.84,0,0,0,.48,0l7.84-.46a3.69,3.69,0,0,0,3.08-2L22,31.11a1.13,1.13,0,0,0,.79-.32A1.17,1.17,0,0,0,21.32,29Zm-2.07.21-1.7-.36a.79.79,0,0,0-.86.42l-2,3.89a.37.37,0,0,1-.29.19l-5.29.31a.38.38,0,0,1-.31-.16L6.38,29.7a.45.45,0,0,0-.4-.19H6a.44.44,0,0,0-.32.67l2.47,3.76a1.22,1.22,0,0,0,1.08.54l5.29-.31a1.22,1.22,0,0,0,1-.66l2-4a.16.16,0,0,1,.2-.09l1.14.31a.19.19,0,0,1,.12.1A.16.16,0,0,1,19,30l-2.38,4.75s0,.09-.07.13a.44.44,0,0,0,0,.48h0a.43.43,0,0,0,.72,0,1.59,1.59,0,0,0,.13-.22l2.44-4.86A.78.78,0,0,0,19.25,29.17ZM6.43,38.33a.44.44,0,0,0-.14-.54,2.85,2.85,0,0,1-.65-.69L1.33,30.55a2.82,2.82,0,0,1-.17-2.82l3.52-7A3.08,3.08,0,0,1,5,20.23a.44.44,0,0,0,0-.52H5a.43.43,0,0,0-.69,0,3.26,3.26,0,0,0-.43.66l-3.52,7A3.7,3.7,0,0,0,.6,31l4.32,6.56a3.54,3.54,0,0,0,.86.91.44.44,0,0,0,.65-.15Z"/><path class="cls-2" d="M27.24,37.46a.44.44,0,0,1-.69,0,3.53,3.53,0,0,1-.46-.83l-2.46-6.16a.83.83,0,0,1,.67-1.13l4-.47a.82.82,0,0,1,.86.51l1.6,4a.36.36,0,0,0,.27.21l4.73.69c.88.11,1,1,.39.92l-5.24-.76a1.21,1.21,0,0,1-1-.74l-1.55-3.89a.18.18,0,0,0-.19-.11l-3.52.52a.15.15,0,0,0-.13.08.18.18,0,0,0,0,.16l2.33,5.83a2.51,2.51,0,0,0,.36.64.45.45,0,0,1,0,.53Zm15.94-8.35L40.75,23l0,0a.43.43,0,0,0-.73-.1l-.17.22.12.24,2.43,6.1A1.64,1.64,0,0,1,42.14,31l-4.06,5.15a1.61,1.61,0,0,1-1.51.6l-6.5-.94a1.61,1.61,0,0,1-1.27-1l-.65-1.6a1.26,1.26,0,0,0,.35-.51,1.15,1.15,0,0,0-.19-1.1,1.17,1.17,0,0,0-1.94.16,1.19,1.19,0,0,0,.11,1.29,1.14,1.14,0,0,0,.85.43L28,35.16A2.45,2.45,0,0,0,30,36.7l6.49.95a2.51,2.51,0,0,0,2.32-.92l4.06-5.16A2.48,2.48,0,0,0,43.18,29.11Zm-11.5-9.46a1.1,1.1,0,0,0,.88.21,1,1,0,0,0,.91-.62l6.17.89a2.88,2.88,0,0,1,2.22,1.75l2.9,7.29c0,.11.08.22.11.33a.43.43,0,0,0,.36.33h0a.43.43,0,0,0,.48-.52,3.53,3.53,0,0,0-.15-.46l-2.9-7.29a3.71,3.71,0,0,0-2.9-2.28l-6.24-.91a1.17,1.17,0,0,0-1.86-.52A1.17,1.17,0,0,0,31.68,19.65Zm.85,1.91.2,1.72a.79.79,0,0,0,.67.68l4.31.63a.33.33,0,0,1,.26.21l2,4.92a.37.37,0,0,1,0,.34L37.1,33.6A.43.43,0,0,0,37,34h0a.44.44,0,0,0,.74.09l2.78-3.53a1.21,1.21,0,0,0,.18-1.2l-2-4.92a1.2,1.2,0,0,0-.94-.75l-4.41-.64a.18.18,0,0,1-.15-.16l-.06-1.18a.18.18,0,0,1,.06-.14.16.16,0,0,1,.14-.05l5.26.77.15,0a.42.42,0,0,0,.45-.14h0a.43.43,0,0,0-.22-.69l-.25-.05-5.38-.78A.79.79,0,0,0,32.53,21.56Zm12.74,9.27a.44.44,0,0,0-.47.3,2.85,2.85,0,0,1-.45.84l-4.86,6.16a2.8,2.8,0,0,1-2.62,1L29.11,38a2.65,2.65,0,0,1-.57-.15A.45.45,0,0,0,28,38h0a.43.43,0,0,0,.19.67,3.77,3.77,0,0,0,.75.2L36.75,40a3.71,3.71,0,0,0,3.42-1.37L45,32.5a3.59,3.59,0,0,0,.6-1.1.43.43,0,0,0-.35-.57Z"/><path class="cls-3" d="M34.06,10.92a.43.43,0,0,1,.42.55,3.48,3.48,0,0,1-.36.87l-3.33,5.75a.83.83,0,0,1-1.3.17L26.64,15.4a.83.83,0,0,1-.13-1l2.17-3.74a.34.34,0,0,0,0-.34L26.29,6.18c-.46-.76.16-1.35.49-.88l2.64,4.59a1.19,1.19,0,0,1,0,1.21l-2.09,3.62a.18.18,0,0,0,0,.22c.74.69,2.05,1.94,2.58,2.45a.2.2,0,0,0,.15,0,.17.17,0,0,0,.13-.08l3.15-5.44a2.8,2.8,0,0,0,.28-.67.43.43,0,0,1,.41-.32ZM17.65,3.55,14.36,9.23l0,0a.43.43,0,0,0,.38.63H15a1.36,1.36,0,0,1,.11-.25L18.4,4a1.63,1.63,0,0,1,1.41-.81h6.56A1.62,1.62,0,0,1,27.78,4l3.27,5.69a1.62,1.62,0,0,1,0,1.62l-.86,1.5a1.21,1.21,0,0,0-.62,0,1.17,1.17,0,1,0,1.52,1.37,1.14,1.14,0,0,0-.18-.93l.89-1.55a2.49,2.49,0,0,0,0-2.48L28.52,3.57a2.48,2.48,0,0,0-2.15-1.25H19.81A2.5,2.5,0,0,0,17.65,3.55Zm-.32,14.89a1.13,1.13,0,0,0-.38-.82,1.06,1.06,0,0,0-1.06-.33l-3.11-5.41a2.81,2.81,0,0,1,0-2.82l3.93-6.79A2.75,2.75,0,0,1,16.91,2a.44.44,0,0,0,0-.49h0a.43.43,0,0,0-.71-.05c-.1.13-.18.26-.27.4L12,8.63a3.69,3.69,0,0,0,0,3.69l3.14,5.46a1.21,1.21,0,0,0-.17.84,1.17,1.17,0,0,0,2.32-.18Zm1-1.85,1.23-1.22a.79.79,0,0,0,.12-.95l-2.17-3.77a.34.34,0,0,1,0-.34l2.66-4.59a.34.34,0,0,1,.29-.17h4.51a.45.45,0,0,0,.38-.23h0a.44.44,0,0,0-.38-.64h-4.5a1.23,1.23,0,0,0-1.05.6L16.74,9.88a1.2,1.2,0,0,0,0,1.2L19,14.94a.17.17,0,0,1,0,.22l-.89.78a.17.17,0,0,1-.27,0l-2.65-4.6a.83.83,0,0,1-.07-.13.44.44,0,0,0-.4-.27h0a.43.43,0,0,0-.4.6l.12.23,2.71,4.71A.78.78,0,0,0,18.3,16.59ZM17.71.85a.43.43,0,0,0,.52.18,2.7,2.7,0,0,1,.94-.17H27a2.84,2.84,0,0,1,2.44,1.42l3.91,6.8a2.79,2.79,0,0,1,.24.53.42.42,0,0,0,.41.31h0a.43.43,0,0,0,.41-.56,3.4,3.4,0,0,0-.31-.71l-3.91-6.8A3.7,3.7,0,0,0,27,0H19.17a3.67,3.67,0,0,0-1.24.21.45.45,0,0,0-.23.63Z"/></g></g></svg>